<?xml version="1.0" standalone="no"?>
<!DOCTYPE svg PUBLIC "-//W3C//DTD SVG 20010904//EN"
 "http://www.w3.org/TR/2001/REC-SVG-20010904/DTD/svg10.dtd">
<svg version="1.0" xmlns="http://www.w3.org/2000/svg"
 width="800.000000pt" height="500.000000pt" viewBox="0 0 800.000000 500.000000"
 preserveAspectRatio="xMidYMid meet">

<g transform="translate(0.000000,500.000000) scale(0.100000,-0.100000)"
fill="#000000" stroke="none">
<path d="M3279 3890 c-163 -19 -335 -91 -432 -180 -109 -100 -172 -206 -218
-370 l-24 -85 0 -750 c0 -745 0 -751 22 -835 68 -257 234 -445 457 -515 164
-53 200 -55 913 -55 684 0 765 4 883 42 197 63 333 172 417 334 49 94 77 189
93 316 15 124 8 1397 -9 1480 -36 180 -98 304 -207 414 -112 113 -267 181
-464 204 -99 11 -1333 11 -1431 0z m1003 -704 c253 -54 437 -299 414 -553 -21
-240 -178 -424 -408 -478 -74 -17 -177 -19 -231 -4 l-38 10 -85 -80 c-46 -45
-89 -81 -95 -81 -6 0 -47 36 -90 80 -64 65 -84 80 -109 80 -33 0 -54 -27 -43
-57 3 -10 39 -52 80 -94 40 -42 73 -83 73 -91 0 -26 -95 -106 -133 -113 -43
-8 -188 10 -225 27 -48 23 -68 68 -82 180 -11 94 -11 107 4 137 10 18 92 106
183 196 142 141 165 167 159 187 -14 50 -18 176 -7 233 18 101 80 213 159 286
133 126 297 172 474 135z"/>
<path d="M4100 2828 c-177 -90 -91 -353 105 -324 86 13 157 113 141 199 -14
76 -96 147 -171 147 -17 0 -51 -10 -75 -22z"/>
</g>
</svg>
