<?xml version="1.0" standalone="no"?>
<!DOCTYPE svg PUBLIC "-//W3C//DTD SVG 20010904//EN"
 "http://www.w3.org/TR/2001/REC-SVG-20010904/DTD/svg10.dtd">
<svg version="1.0" xmlns="http://www.w3.org/2000/svg"
 width="800.000000pt" height="500.000000pt" viewBox="0 0 800.000000 500.000000"
 preserveAspectRatio="xMidYMid meet">

<g transform="translate(0.000000,500.000000) scale(0.100000,-0.100000)"
fill="#000000" stroke="none">
<path d="M0 2500 l0 -2500 4000 0 4000 0 0 2500 0 2500 -4000 0 -4000 0 0
-2500z m4820 1377 c105 -30 122 -36 198 -74 195 -96 328 -299 368 -557 21
-139 20 -1388 -1 -1511 -21 -117 -48 -196 -98 -280 -81 -139 -197 -236 -350
-295 -150 -58 -174 -60 -932 -60 -723 0 -749 1 -904 46 -207 60 -377 226 -449
439 -48 142 -47 127 -47 930 l0 760 28 90 c44 140 90 218 187 316 67 68 101
94 160 122 107 51 195 77 305 91 17 2 356 3 755 1 628 -1 732 -4 780 -18z"/>
<path d="M4083 3190 c-34 -5 -94 -24 -135 -43 -213 -99 -334 -326 -298 -562
l12 -78 -175 -176 c-125 -126 -177 -185 -181 -206 -3 -16 0 -74 8 -127 16
-110 37 -150 89 -167 53 -18 178 -32 216 -25 38 8 131 86 131 111 0 8 -36 52
-80 98 -44 46 -80 90 -80 97 0 26 26 51 54 51 21 0 46 -19 105 -77 42 -42 83
-76 91 -76 8 0 49 35 92 77 l77 77 51 -12 c68 -16 119 -15 212 3 140 27 256
104 337 226 58 87 83 173 84 289 0 142 -40 250 -130 350 -118 132 -295 194
-480 170z m154 -351 c38 -14 83 -57 99 -96 49 -113 -38 -243 -161 -243 -94 0
-175 80 -175 174 0 121 124 208 237 165z"/>
</g>
</svg>
