<?xml version="1.0" standalone="no"?>
<!DOCTYPE svg PUBLIC "-//W3C//DTD SVG 20010904//EN"
 "http://www.w3.org/TR/2001/REC-SVG-20010904/DTD/svg10.dtd">
<svg version="1.0" xmlns="http://www.w3.org/2000/svg"
 width="800.000000pt" height="500.000000pt" viewBox="0 0 800.000000 500.000000"
 preserveAspectRatio="xMidYMid meet">

<g transform="translate(0.000000,500.000000) scale(0.100000,-0.100000)"
fill="#000000" stroke="none">
<path d="M1305 3893 c-410 -34 -664 -289 -704 -707 -14 -142 -14 -1204 -1
-1356 19 -206 83 -373 187 -491 70 -78 215 -166 320 -195 156 -41 204 -44 885
-44 408 0 686 4 735 11 193 26 322 86 444 208 97 97 152 193 191 336 22 79 23
92 26 795 3 617 1 728 -13 811 -18 110 -51 206 -96 286 -46 80 -152 188 -228
233 -90 53 -229 98 -342 110 -84 9 -1303 12 -1404 3z m955 -704 c97 -15 204
-71 276 -143 165 -165 202 -419 91 -630 -40 -78 -140 -177 -217 -216 -105 -53
-272 -75 -361 -48 l-39 11 -85 -82 c-70 -68 -87 -81 -102 -72 -10 5 -49 41
-88 80 -71 72 -105 87 -133 59 -25 -25 -10 -55 68 -138 44 -47 80 -89 80 -94
0 -22 -100 -105 -133 -111 -42 -8 -193 9 -231 26 -54 25 -86 121 -86 257 l0
65 177 178 176 178 -12 88 c-11 76 -10 99 4 168 61 293 320 472 615 424z"/>
<path d="M2113 2839 c-36 -11 -90 -61 -104 -96 -14 -38 -11 -112 8 -150 37
-78 145 -113 227 -73 117 56 130 224 22 298 -37 25 -107 35 -153 21z"/>
<path d="M7260 3114 l0 -116 -30 25 c-84 72 -214 31 -256 -80 -20 -52 -23
-148 -5 -210 32 -115 169 -158 256 -81 l35 30 2 -33 c5 -132 -64 -248 -187
-311 -109 -56 -207 -74 -470 -87 -286 -14 -516 -1 -1290 73 -731 71 -1155 62
-1472 -30 -88 -25 -273 -109 -273 -123 0 -19 16 -18 69 6 232 105 483 139 961
130 278 -5 448 -17 790 -52 455 -47 723 -66 1005 -72 417 -8 567 10 723 84
133 63 223 180 242 314 5 35 10 196 10 357 l0 292 -55 0 -55 0 0 -116z m-56
-154 c36 -13 56 -59 56 -127 0 -76 -25 -119 -75 -129 -76 -14 -125 38 -125
131 0 103 61 157 144 125z"/>
<path d="M3750 2905 l0 -285 55 0 55 0 0 104 0 104 88 4 c68 3 96 9 130 28 97
54 111 205 27 283 -39 36 -95 47 -234 47 l-121 0 0 -285z m281 166 c11 -14 19
-39 19 -61 0 -22 -8 -47 -19 -61 -16 -20 -30 -24 -95 -27 l-76 -4 0 92 0 92
76 -4 c65 -3 79 -7 95 -27z"/>
<path d="M4348 3048 c-20 -5 -53 -24 -73 -41 l-36 -32 23 -28 23 -27 49 25
c77 39 146 30 146 -20 0 -29 -17 -39 -95 -55 -118 -24 -163 -69 -152 -151 14
-103 152 -145 224 -69 l28 30 21 -28 c19 -23 30 -27 72 -27 28 0 53 2 56 6 3
3 3 21 -1 41 -4 28 -11 38 -27 40 -20 3 -21 10 -26 135 -4 113 -8 136 -26 160
-35 47 -119 64 -206 41z m132 -258 c0 -41 -5 -56 -25 -75 -52 -52 -138 -16
-121 50 7 26 18 33 96 58 25 8 46 15 48 16 1 0 2 -22 2 -49z"/>
<path d="M4789 3051 c-65 -21 -99 -63 -99 -121 0 -70 32 -99 141 -130 89 -24
109 -48 73 -84 -30 -31 -118 -14 -154 29 -12 14 -16 13 -46 -16 -18 -18 -30
-38 -27 -45 3 -8 26 -27 51 -41 38 -23 58 -27 116 -27 118 -1 182 53 173 143
-7 61 -37 88 -132 115 -83 23 -108 43 -89 74 17 26 90 28 124 3 l27 -20 27 28
c34 36 33 45 -9 71 -39 24 -132 35 -176 21z"/>
<path d="M5189 3051 c-67 -22 -99 -61 -99 -121 0 -69 40 -105 145 -131 80 -19
103 -49 65 -84 -26 -23 -96 -16 -140 15 l-31 22 -29 -27 c-36 -34 -28 -55 33
-87 57 -31 167 -32 217 -3 46 27 74 84 65 132 -10 56 -49 87 -133 108 -96 23
-120 46 -85 80 21 22 104 16 131 -8 17 -16 20 -15 45 11 35 37 34 46 -8 72
-39 24 -132 35 -176 21z"/>
<path d="M6247 3045 c-85 -30 -127 -100 -127 -210 0 -82 22 -138 69 -178 101
-85 269 -50 322 68 25 54 25 166 0 220 -43 96 -157 139 -264 100z m132 -91
c29 -21 51 -72 51 -119 0 -20 -6 -51 -14 -69 -37 -88 -145 -88 -182 0 -40 95
9 204 91 204 17 0 41 -7 54 -16z"/>
<path d="M5514 2835 l51 -216 54 3 c62 3 52 -14 102 171 17 64 35 117 38 117
4 0 25 -64 48 -142 l40 -143 56 -3 c32 -2 57 1 57 7 0 5 22 102 49 215 l48
206 -46 0 -47 0 -29 -145 c-16 -80 -33 -145 -37 -145 -6 0 -37 94 -74 228
l-18 63 -45 -3 -45 -3 -40 -142 c-22 -79 -43 -143 -47 -143 -7 0 -14 26 -54
213 l-17 77 -47 0 -48 0 51 -215z"/>
<path d="M6640 2835 l0 -215 50 0 50 0 0 113 c0 178 25 226 110 214 l39 -5 7
43 c8 54 1 65 -37 65 -38 0 -68 -15 -96 -49 l-22 -26 -1 38 0 37 -50 0 -50 0
0 -215z"/>
<path d="M7426 2548 c-7 -13 -17 -41 -21 -62 -17 -101 -107 -214 -207 -262
-44 -22 -48 -25 -20 -20 122 21 267 159 302 288 18 65 -22 106 -54 56z"/>
<path d="M4155 2469 c-110 -13 -270 -54 -374 -95 -92 -37 -86 -37 55 1 130 34
277 54 444 61 156 6 179 9 164 24 -14 14 -199 20 -289 9z"/>
<path d="M4034 2096 c-66 -29 -101 -110 -90 -209 11 -107 59 -157 149 -157 38
0 53 5 73 25 14 14 27 25 29 25 3 0 5 -11 5 -25 0 -21 5 -25 30 -25 l30 0 0
105 0 105 -80 0 -80 0 0 -30 c0 -29 2 -30 45 -30 41 0 45 -2 45 -24 0 -40 -10
-54 -43 -65 -41 -14 -86 -2 -109 30 -42 56 -31 184 19 216 38 25 96 23 126 -5
21 -20 28 -21 51 -11 14 7 26 16 26 21 0 13 -39 48 -66 58 -36 14 -124 12
-160 -4z"/>
<path d="M5857 2063 c-4 -3 -7 -17 -7 -30 0 -16 -6 -23 -20 -23 -16 0 -20 -7
-20 -30 0 -23 4 -30 20 -30 18 0 20 -7 20 -85 0 -78 2 -88 25 -110 18 -19 35
-25 67 -25 58 0 74 11 58 39 -8 16 -17 20 -31 16 -36 -12 -49 12 -49 91 l0 74
40 0 c38 0 40 2 40 30 0 28 -2 30 -40 30 -38 0 -40 2 -40 30 0 26 -4 30 -28
30 -16 0 -32 -3 -35 -7z"/>
<path d="M4399 1995 c-83 -45 -89 -189 -10 -242 50 -34 129 -32 171 4 l32 27
-22 18 c-22 18 -24 18 -42 1 -28 -25 -86 -22 -109 6 -11 13 -19 27 -19 32 0 5
43 9 95 9 l95 0 0 40 c0 52 -18 88 -51 106 -35 18 -106 17 -140 -1z m111 -55
c33 -33 24 -40 -45 -40 -63 0 -65 1 -55 21 21 39 71 48 100 19z"/>
<path d="M4660 1870 l0 -140 35 0 35 0 0 90 c0 83 2 93 25 115 28 29 42 31 73
9 20 -14 22 -23 22 -115 l0 -99 36 0 37 0 -5 115 c-4 104 -7 117 -28 140 -31
32 -95 35 -134 4 l-26 -20 0 20 c0 17 -6 21 -35 21 l-35 0 0 -140z"/>
<path d="M5049 1995 c-83 -45 -89 -189 -10 -242 50 -34 129 -32 171 4 l32 27
-22 18 c-22 18 -24 18 -42 1 -28 -25 -86 -22 -109 6 -11 13 -19 27 -19 32 0 5
43 9 95 9 l95 0 0 40 c0 52 -18 88 -51 106 -35 18 -106 17 -140 -1z m111 -55
c33 -33 24 -40 -45 -40 -63 0 -65 1 -55 21 21 39 71 48 100 19z"/>
<path d="M5310 1870 l0 -140 35 0 35 0 0 90 c0 102 15 130 69 130 23 0 30 5
33 25 3 13 3 27 0 30 -12 12 -51 4 -76 -16 l-26 -20 0 20 c0 17 -6 21 -35 21
l-35 0 0 -140z"/>
<path d="M5563 1990 c-36 -22 -37 -23 -23 -50 9 -17 11 -17 50 2 50 25 93 18
88 -15 -2 -17 -15 -25 -67 -38 -36 -10 -71 -25 -78 -35 -20 -27 -16 -81 7
-104 28 -28 100 -28 125 0 l18 20 22 -20 c22 -21 69 -27 80 -10 10 16 -5 50
-21 50 -11 0 -14 18 -14 85 0 78 -2 88 -25 110 -32 33 -114 35 -162 5z m127
-145 c0 -28 -40 -75 -64 -75 -15 0 -46 26 -46 39 0 18 28 40 60 49 50 14 50
14 50 -13z"/>
<path d="M6108 1994 c-38 -20 -58 -63 -58 -124 0 -93 45 -140 135 -140 90 0
135 47 135 140 0 62 -20 105 -60 125 -37 19 -117 19 -152 -1z m130 -61 c16
-22 15 -105 -2 -128 -9 -13 -26 -19 -51 -19 -47 0 -65 23 -65 84 0 66 27 94
80 84 14 -3 31 -12 38 -21z"/>
<path d="M6400 1870 l0 -140 29 0 29 0 4 90 c5 101 19 127 72 132 26 2 32 8
34 31 3 24 0 27 -27 27 -18 0 -40 -9 -51 -20 -11 -11 -22 -20 -25 -20 -3 0 -5
9 -5 20 0 16 -7 20 -30 20 l-30 0 0 -140z"/>
</g>
</svg>
