<?xml version="1.0" standalone="no"?>
<!DOCTYPE svg PUBLIC "-//W3C//DTD SVG 20010904//EN"
 "http://www.w3.org/TR/2001/REC-SVG-20010904/DTD/svg10.dtd">
<svg version="1.0" xmlns="http://www.w3.org/2000/svg"
 width="800.000000pt" height="500.000000pt" viewBox="0 0 800.000000 500.000000"
 preserveAspectRatio="xMidYMid meet">

<g transform="translate(0.000000,500.000000) scale(0.100000,-0.100000)"
fill="#000000" stroke="none">
<path d="M0 2500 l0 -2500 4000 0 4000 0 0 2500 0 2500 -4000 0 -4000 0 0
-2500z m2832 1373 c203 -57 332 -147 432 -303 51 -79 69 -121 98 -225 22 -79
23 -91 26 -819 2 -655 1 -748 -14 -820 -58 -289 -224 -477 -494 -564 -121 -39
-176 -42 -880 -42 -563 0 -700 3 -770 15 -189 33 -310 93 -427 211 -57 57 -81
92 -116 166 -95 199 -99 246 -95 1073 4 598 6 678 22 745 37 158 96 268 201
376 103 105 265 181 436 203 35 5 388 8 784 7 704 -2 722 -2 797 -23z m4538
-940 c0 -164 -4 -325 -10 -357 -31 -189 -190 -328 -428 -373 -84 -16 -147 -18
-467 -17 -335 1 -401 4 -700 33 -650 62 -743 70 -940 82 -241 14 -637 6 -785
-16 -135 -20 -275 -57 -374 -100 -44 -19 -83 -32 -88 -29 -21 13 -1 29 97 75
113 54 268 98 425 120 126 18 742 19 935 1 77 -7 275 -26 440 -42 165 -16 363
-35 440 -42 87 -8 278 -13 505 -12 332 0 373 2 460 21 126 28 194 55 255 101
83 63 140 185 125 266 -5 27 -6 28 -19 12 -37 -45 -133 -61 -190 -31 -68 34
-101 104 -101 210 0 106 33 176 101 210 46 24 130 19 173 -10 l36 -24 0 109 0
110 55 0 55 0 0 -297z m-3313 246 c81 -30 126 -124 103 -218 -12 -53 -55 -102
-103 -120 -16 -6 -64 -11 -108 -11 l-79 0 0 -105 0 -105 -60 0 -60 0 0 285 0
285 139 0 c77 0 152 -5 168 -11z m458 -133 c58 -25 69 -54 75 -201 5 -129 5
-130 28 -127 22 3 23 1 20 -45 l-3 -48 -52 -3 c-45 -3 -57 1 -77 21 l-23 23
-33 -29 c-30 -27 -37 -29 -96 -25 -74 5 -108 29 -124 88 -21 76 17 138 98 160
20 5 60 15 87 23 43 11 50 16 53 40 3 21 -2 29 -23 37 -34 13 -91 -1 -130 -32
l-28 -22 -28 35 -29 34 37 33 c20 18 51 36 67 41 48 14 143 12 181 -3z m443
-7 c57 -28 62 -44 23 -82 -26 -27 -34 -30 -49 -19 -67 48 -157 33 -136 -23 3
-8 25 -19 48 -25 131 -32 160 -50 176 -108 14 -55 -3 -105 -47 -139 -29 -22
-49 -28 -103 -31 -77 -5 -127 9 -170 45 -37 31 -37 39 -3 75 32 33 37 34 65 8
28 -26 81 -40 115 -31 22 6 28 13 28 36 0 28 -4 30 -79 51 -105 29 -141 63
-141 133 0 55 26 93 80 117 47 21 142 17 193 -7z m385 7 c18 -7 40 -22 49 -32
16 -19 16 -21 -8 -52 -28 -35 -45 -40 -63 -18 -16 20 -73 28 -105 16 -20 -7
-27 -16 -24 -33 3 -22 19 -30 127 -57 24 -7 57 -24 73 -40 23 -24 28 -37 28
-80 0 -30 -7 -61 -17 -76 -43 -66 -172 -85 -270 -40 -73 34 -81 54 -38 96 l34
33 26 -22 c55 -43 136 -46 152 -5 9 24 -18 43 -83 60 -86 23 -121 48 -136 96
-28 96 42 168 164 168 32 0 73 -6 91 -14z m1082 -5 c77 -34 115 -103 115 -206
0 -143 -78 -225 -215 -225 -134 0 -215 85 -215 225 0 97 42 173 114 206 54 24
148 25 201 0z m-830 -126 c15 -75 31 -132 35 -128 4 4 15 35 25 68 9 33 25 91
36 128 l20 68 52 -3 52 -3 39 -137 c22 -76 41 -136 43 -134 2 1 16 63 31 137
l29 134 51 3 c38 2 52 -1 52 -10 0 -7 -22 -103 -48 -213 l-47 -200 -62 -3 -62
-3 -14 48 c-8 26 -25 87 -38 136 -13 48 -26 87 -30 87 -3 0 -22 -60 -41 -132
l-35 -133 -63 0 -63 0 -48 200 c-26 110 -48 206 -49 213 0 8 17 12 53 12 l54
0 28 -135z m1155 109 l0 -26 31 26 c24 20 41 26 80 26 54 0 54 -1 42 -73 -6
-37 -7 -38 -38 -33 -88 17 -115 -31 -115 -204 l0 -120 -60 0 -60 0 0 215 0
215 60 0 c58 0 60 -1 60 -26z m734 -486 c14 -40 -46 -160 -114 -226 -51 -50
-144 -103 -202 -116 -36 -8 -37 10 -2 18 102 26 220 159 239 271 14 81 59 111
79 53z m-3042 -74 c22 -14 -10 -24 -75 -24 -172 0 -413 -33 -570 -79 -53 -15
-97 -25 -97 -21 0 23 303 113 438 129 75 10 286 6 304 -5z m-261 -354 c33 -9
89 -53 89 -69 0 -3 -14 -14 -32 -24 -31 -18 -31 -18 -58 8 -47 45 -120 30
-146 -30 -28 -67 -10 -171 34 -194 28 -15 74 -14 95 2 9 6 20 27 23 45 l7 32
-47 0 c-44 0 -46 1 -46 30 l0 30 85 0 85 0 0 -105 0 -105 -40 0 c-28 0 -40 4
-40 14 0 11 -8 10 -37 -5 -47 -24 -77 -24 -130 0 -69 32 -105 134 -83 238 24
109 125 165 241 133z m1739 -65 c0 -35 0 -35 45 -35 43 0 45 -1 45 -30 0 -29
-2 -30 -45 -30 l-45 0 0 -67 c0 -84 8 -98 48 -90 27 5 32 3 41 -23 9 -28 8
-30 -29 -41 -44 -13 -77 -7 -111 20 -22 17 -24 29 -27 110 -4 82 -6 91 -23 91
-14 0 -19 7 -19 30 0 23 4 30 20 30 15 0 20 7 20 29 0 30 3 32 68 40 7 0 12
-12 12 -34z m-1366 -50 c28 -19 46 -63 46 -111 l0 -34 -95 0 c-100 0 -111 -6
-78 -42 20 -22 76 -24 93 -3 16 19 30 19 59 -1 l22 -16 -22 -24 c-29 -31 -82
-48 -131 -40 -80 13 -118 60 -118 146 0 76 33 126 95 143 32 9 103 -1 129 -18z
m343 -10 c21 -24 23 -36 23 -141 l0 -114 -40 0 -40 0 0 94 c0 112 -4 126 -38
126 -50 0 -62 -24 -62 -127 l0 -93 -40 0 -40 0 0 140 0 140 35 0 c24 0 35 -5
35 -15 0 -12 6 -11 33 6 43 27 103 20 134 -16z m307 10 c28 -19 46 -63 46
-111 l0 -34 -95 0 c-100 0 -111 -6 -78 -42 20 -22 76 -24 93 -3 16 19 30 19
59 -1 l22 -16 -22 -24 c-29 -31 -82 -48 -131 -40 -80 13 -118 60 -118 146 0
76 33 126 95 143 32 9 103 -1 129 -18z m501 10 c44 -18 55 -46 55 -141 0 -59
3 -74 15 -74 10 0 15 -10 15 -30 0 -28 -2 -30 -39 -30 -22 0 -44 6 -51 15 -11
14 -15 14 -32 -2 -13 -12 -36 -18 -65 -18 -37 0 -49 5 -69 28 -54 63 -18 125
83 142 44 7 69 27 58 45 -10 16 -64 12 -96 -7 -28 -16 -29 -16 -44 2 -20 28
-15 37 35 63 51 26 87 28 135 7z m551 -5 c49 -24 74 -68 74 -130 0 -62 -25
-106 -74 -130 -23 -11 -55 -20 -71 -20 -49 0 -111 37 -130 77 -24 51 -17 134
16 169 50 55 116 67 185 34z m-876 -6 c0 -14 2 -14 22 0 12 9 37 16 56 16 32
0 33 -2 30 -32 -3 -30 -6 -33 -36 -33 -51 0 -62 -23 -62 -127 l0 -88 -40 0
-40 0 0 140 0 140 35 0 c25 0 35 -4 35 -16z m1090 -1 c0 -15 1 -15 18 0 11 10
35 17 56 17 35 0 38 -2 32 -22 -3 -13 -6 -29 -6 -36 0 -7 -10 -12 -22 -11 -65
6 -78 -17 -78 -131 l0 -80 -40 0 -40 0 0 140 0 140 40 0 c31 0 40 -4 40 -17z"/>
<path d="M2085 3189 c-181 -24 -333 -143 -406 -319 -26 -61 -33 -92 -36 -170
-3 -52 0 -115 6 -140 l10 -45 -168 -170 c-93 -93 -174 -180 -180 -192 -15 -29
-13 -112 3 -196 17 -87 48 -122 120 -136 108 -21 161 -23 197 -8 43 19 109 83
109 105 0 10 -28 44 -61 77 -82 80 -101 111 -87 141 11 23 25 29 58 24 8 -1
49 -35 90 -76 42 -41 84 -74 94 -74 10 0 54 35 97 77 l80 77 44 -12 c84 -22
227 -6 326 37 118 50 234 177 280 306 30 82 33 255 5 335 -65 194 -233 335
-427 360 -41 5 -78 9 -84 8 -5 0 -37 -4 -70 -9z m162 -358 c59 -27 96 -86 96
-154 0 -55 -18 -100 -49 -128 -60 -53 -143 -63 -209 -26 -126 71 -120 249 9
308 52 24 100 24 153 0z"/>
<path d="M7125 2956 c-39 -17 -55 -53 -55 -122 0 -100 52 -150 125 -120 44 19
59 49 59 121 0 73 -15 102 -59 121 -40 16 -33 16 -70 0z"/>
<path d="M3870 3010 l0 -93 65 6 c85 6 105 23 105 87 0 64 -20 81 -105 87
l-65 6 0 -93z"/>
<path d="M4415 2813 c-64 -19 -75 -29 -75 -64 0 -58 81 -77 114 -26 18 26 32
107 20 106 -5 -1 -31 -8 -59 -16z"/>
<path d="M6288 2959 c-81 -30 -76 -221 6 -249 72 -23 126 29 126 123 0 68 -18
107 -56 123 -38 16 -39 16 -76 3z"/>
<path d="M4427 1932 c-26 -28 -21 -32 38 -32 38 0 55 4 55 13 0 37 -65 50 -93
19z"/>
<path d="M5077 1932 c-26 -28 -21 -32 38 -32 38 0 55 4 55 13 0 37 -65 50 -93
19z"/>
<path d="M5633 1853 c-30 -6 -46 -28 -38 -53 14 -43 85 -11 85 38 0 22 -5 23
-47 15z"/>
<path d="M6144 1936 c-14 -11 -19 -26 -19 -66 0 -58 18 -80 66 -80 37 0 54 25
54 80 0 26 -6 54 -14 63 -17 21 -60 22 -87 3z"/>
</g>
</svg>
